HIERARCHY
ROOT Hips
{
    OFFSET 0.000 93.594 0.000
    CHANNELS 6 Xposition Yposition Zposition Yrotation Xrotation Zrotation
    JOINT RightHip
    {
        OFFSET -9.500 -1.594 0.000
        CHANNELS 3 Yrotation Xrotation Zrotation
        JOINT RightKnee
        {
            OFFSET 0.000 -42.000 0.000
            CHANNELS 3 Yrotation Xrotation Zrotation
            JOINT RightAnkle
            {
                OFFSET 0.000 -42.000 0.000
                CHANNELS 3 Yrotation Xrotation Zrotation
                End Site
                {
                    OFFSET 0.000 -8.000 17.500
                }
            }
        }
    }
    JOINT LeftHip
    {
        OFFSET 9.500 -1.594 0.000
        CHANNELS 3 Yrotation Xrotation Zrotation
        JOINT LeftKnee
        {
            OFFSET 0.000 -42.000 0.000
            CHANNELS 3 Yrotation Xrotation Zrotation
            JOINT LeftAnkle
            {
                OFFSET 0.000 -42.000 0.000
                CHANNELS 3 Yrotation Xrotation Zrotation
                End Site
                {
                    OFFSET 0.000 -8.000 17.500
                }
            }
        }
    }
    JOINT Chest
    {
        OFFSET 0.000 14.348 0.000
        CHANNELS 3 Yrotation Xrotation Zrotation
        JOINT Chest2
        {
            OFFSET 0.000 9.746 0.000
            CHANNELS 3 Yrotation Xrotation Zrotation
            JOINT Chest3
            {
                OFFSET 0.000 10.149 0.000
                CHANNELS 3 Yrotation Xrotation Zrotation
                JOINT Chest4
                {
                    OFFSET 0.000 9.746 0.000
                    CHANNELS 3 Yrotation Xrotation Zrotation
                    JOINT Neck
                    {
                        OFFSET 0.000 10.417 0.000
                        CHANNELS 3 Yrotation Xrotation Zrotation
                        JOINT Head
                        {
                            OFFSET 0.000 9.000 0.000
                            CHANNELS 3 Yrotation Xrotation Zrotation
                            End Site
                            {
                                OFFSET 0.000 16.000 0.000
                            }
                        }
                    }
                    JOINT RightCollar
                    {
                        OFFSET -3.200 6.945 0.000
                        CHANNELS 3 Yrotation Xrotation Zrotation
                        JOINT RightShoulder
                        {
                            OFFSET -12.800 0.000 0.000
                            CHANNELS 3 Yrotation Xrotation Zrotation
                            JOINT RightElbow
                            {
OFFSET -0 -27 0.000
						CHANNELS 3 Xrotation Yrotation Zrotation
                                JOINT RightWrist
                                {
OFFSET -0 -26 0.000
						CHANNELS 3 Xrotation Yrotation Zrotation
                                    JOINT RightFinger0
                                    {
OFFSET -0.196 -2.56 3.210
						CHANNELS 3 Xrotation Yrotation Zrotation
                                        JOINT RightFinger01
                                        {
OFFSET -0 -3.788 0.000
						CHANNELS 3 Xrotation Yrotation Zrotation
                                            JOINT RightFinger0Nub
                                            {
OFFSET -0 -2.631 0.000
						CHANNELS 3 Xrotation Yrotation Zrotation
                                                End Site
                                                {
OFFSET 0 -2.256 0
                                                }
                                            }
                                        }
                                    }
                                    JOINT RightFinger1
                                    {
OFFSET -0.523 -3.316 2.035
						CHANNELS 3 Xrotation Yrotation Zrotation
                                        JOINT RightFinger11
                                        {
OFFSET 0.094 -5.366 1.028
						CHANNELS 3 Xrotation Yrotation Zrotation
                                            JOINT RightFinger12
                                            {
OFFSET -0 -3.723 0.000
						CHANNELS 3 Xrotation Yrotation Zrotation
                                                JOINT RightFinger1Nub
                                                {
OFFSET -0 -2.111 0.000
						CHANNELS 3 Xrotation Yrotation Zrotation
                                                    End Site
                                                    {
OFFSET 0 -1.857 0
                                                    }
                                                }
                                            }
                                        }
                                    }
                                    JOINT RightFinger2
                                    {
OFFSET -0.532 -3.479 0.778
						CHANNELS 3 Xrotation Yrotation Zrotation
                                        JOINT RightFinger21
                                        {
OFFSET 0.086 -5.322 0.323
						CHANNELS 3 Xrotation Yrotation Zrotation
                                            JOINT RightFinger22
                                            {
OFFSET -0 -4.062 0.000
						CHANNELS 3 Xrotation Yrotation Zrotation
                                                JOINT RightFinger2Nub
                                                {
OFFSET -0 -2.547 0.000
						CHANNELS 3 Xrotation Yrotation Zrotation
                                                    End Site
                                                    {
OFFSET 0 -2.031 0
                                                    }
                                                }
                                            }
                                        }
                                    }
                                    JOINT RightFinger3
                                    {
OFFSET -0.553 -3.461 -0.133
						CHANNELS 3 Xrotation Yrotation Zrotation
                                        JOINT RightFinger31
                                        {
OFFSET 0.023 -4.767 -0.493
						CHANNELS 3 Xrotation Yrotation Zrotation
                                            JOINT RightFinger32
                                            {
OFFSET -0 -3.541 0.000
						CHANNELS 3 Xrotation Yrotation Zrotation
                                                JOINT RightFinger3Nub
                                                {
OFFSET -0 -2.456 0.000
						CHANNELS 3 Xrotation Yrotation Zrotation
                                                    End Site
                                                    {
OFFSET 0 -1.91 0
                                                    }
                                                }
                                            }
                                        }
                                    }
                                    JOINT RightFinger4
                                    {
OFFSET -0.483 -3.251 -1.236
						CHANNELS 3 Xrotation Yrotation Zrotation
                                        JOINT RightFinger41
                                        {
OFFSET 0.023 -4.259 -1.122
						CHANNELS 3 Xrotation Yrotation Zrotation
                                            JOINT RightFinger42
                                            {
OFFSET -0 -2.835 0.000
						CHANNELS 3 Xrotation Yrotation Zrotation
                                                JOINT RightFinger4Nub
                                                {
OFFSET -0 -1.792 0.000
						CHANNELS 3 Xrotation Yrotation Zrotation
                                                    End Site
                                                    {
OFFSET 0 -1.692 0
                                                    }
                                                }
                                            }
                                        }
                                    }
                                }
                            }
                        }
                    }
                    JOINT LeftCollar
                    {
                        OFFSET 3.200 6.945 0.000
                        CHANNELS 3 Yrotation Xrotation Zrotation
                        JOINT LeftShoulder
                        {
                            OFFSET 12.800 0.000 0.000
                            CHANNELS 3 Yrotation Xrotation Zrotation
                            JOINT LeftElbow
                            {
OFFSET -0 -27 0.000
						CHANNELS 3 Xrotation Yrotation Zrotation
                                JOINT LeftWrist
                                {
OFFSET -0 -26 0.000
						CHANNELS 3 Xrotation Yrotation Zrotation
                                    JOINT LeftFinger0
                                    {
OFFSET -0.196 -2.56 3.210
						CHANNELS 3 Xrotation Yrotation Zrotation
                                        JOINT LeftFinger01
                                        {
OFFSET -0 -3.788 0.000
						CHANNELS 3 Xrotation Yrotation Zrotation
                                            JOINT LeftFinger0Nub
                                            {
OFFSET -0 -2.631 0.000
						CHANNELS 3 Xrotation Yrotation Zrotation
                                                End Site
                                                {
OFFSET 0 -2.256 0
                                                }
                                            }
                                        }
                                    }
                                    JOINT LeftFinger1
                                    {
OFFSET -0.523 -3.316 2.035
						CHANNELS 3 Xrotation Yrotation Zrotation
                                        JOINT LeftFinger11
                                        {
OFFSET 0.094 -5.366 1.028
						CHANNELS 3 Xrotation Yrotation Zrotation
                                            JOINT LeftFinger12
                                            {
OFFSET -0 -3.723 0.000
						CHANNELS 3 Xrotation Yrotation Zrotation
                                                JOINT LeftFinger1Nub
                                                {
OFFSET -0 -2.111 0.000
						CHANNELS 3 Xrotation Yrotation Zrotation
                                                    End Site
                                                    {
OFFSET 0 -1.857 0
                                                    }
                                                }
                                            }
                                        }
                                    }
                                    JOINT LeftFinger2
                                    {
OFFSET -0.532 -3.479 0.778
						CHANNELS 3 Xrotation Yrotation Zrotation
                                        JOINT LeftFinger21
                                        {
OFFSET 0.086 -5.322 0.323
						CHANNELS 3 Xrotation Yrotation Zrotation
                                            JOINT LeftFinger22
                                            {
OFFSET -0 -4.062 0.000
						CHANNELS 3 Xrotation Yrotation Zrotation
                                                JOINT LeftFinger2Nub
                                                {
OFFSET -0 -2.547 0.000
						CHANNELS 3 Xrotation Yrotation Zrotation
                                                    End Site
                                                    {
OFFSET 0 -2.031 0
                                                    }
                                                }
                                            }
                                        }
                                    }
                                    JOINT LeftFinger3
                                    {
OFFSET -0.553 -3.461 -0.133
						CHANNELS 3 Xrotation Yrotation Zrotation
                                        JOINT LeftFinger31
                                        {
OFFSET 0.023 -4.767 -0.493
						CHANNELS 3 Xrotation Yrotation Zrotation
                                            JOINT LeftFinger32
                                            {
OFFSET -0 -3.541 0.000
						CHANNELS 3 Xrotation Yrotation Zrotation
                                                JOINT LeftFinger3Nub
                                                {
OFFSET -0 -2.456 0.000
						CHANNELS 3 Xrotation Yrotation Zrotation
                                                    End Site
                                                    {
OFFSET 0 -1.91 0
                                                    }
                                                }
                                            }
                                        }
                                    }
                                    JOINT LeftFinger4
                                    {
OFFSET -0.483 -3.251 -1.236
						CHANNELS 3 Xrotation Yrotation Zrotation
                                        JOINT LeftFinger41
                                        {
OFFSET 0.023 -4.259 -1.122
						CHANNELS 3 Xrotation Yrotation Zrotation
                                            JOINT LeftFinger42
                                            {
OFFSET -0 -2.835 0.000
						CHANNELS 3 Xrotation Yrotation Zrotation
                                                JOINT LeftFinger4Nub
                                                {
OFFSET -0 -1.792 0.000
						CHANNELS 3 Xrotation Yrotation Zrotation
                                                    End Site
                                                    {
OFFSET 0 -1.692 0
                                                    }
                                                }
                                            }
                                        }
                                    }
                                }
                            }
                        }
                    }
                }
            }
        }
    }
}
MOTION

Frames: 10
Frame Time: 0.017
-258.61 92.81 166.62 112.48 -5.08 -1.07 -8.51 -7.70 -11.45 0.00 34.04 -0.00 -38.37 -4.84 8.90 -18.31 -8.17 1.55 0.00 28.83 0.00 30.08 -14.27 -8.39 -10.96 1.56 1.38 -2.75 0.35 0.38 -4.52 0.60 0.61 -0.33 3.49 -0.18 0.35 53.92 2.35 -16.55 30.36 -4.67 11.01 0.14 -5.38 -5.33 -12.08 -21.21 -59.14 8.73 47.63 -9.51 2.91 15.45 -43.74 -0 59.80 23.06 -0 29.98 62.02 -0 0.00 0 -0 0.00 -15 -0 32.01 0 -0 43.64 0 -0 21.82 0 -0 0.00 0 -0 41.77 0 -0 41.77 0 -0 41.77 0 -0 0.00 15 -0 39.91 0 -0 39.91 0 -0 39.91 0 -0 0.00 25 -0 24.59 0 -0 24.59 0 -0 24.59 -11.17 0.94 -2.28 -4.53 -28.97 51.9 -96.66 -32.34 -32.70 -42.31 20.99 20.67 -9.36 0 -37.89 -8.68 0 6.33 11.38 0 0.00 0.00 0 0.00 -15.00 0 -37.35 0.00 0 -31.89 0.00 0 -15.95 0.00 0 0.00 0.00 0 -41.41 0.00 0 -41.41 0.00 0 -41.41 0.00 0 0.00 15.00 0 -46.34 0.00 0 -46.34 0.00 0 -46.34 0.00 0 0.00 25.00 0 -37.02 0.00 0 -37.02 0.00 0 -37.02 
-258.61 92.79 166.68 112.52 -5.07 -0.90 -8.49 -7.37 -11.40 0.00 34.56 0.00 -38.76 -4.88 8.90 -18.39 -8.22 1.42 -0.00 28.77 -0.00 30.12 -14.21 -8.41 -11.02 1.39 1.30 -2.76 0.32 0.35 -4.54 0.54 0.57 -0.33 3.49 -0.18 0.34 54.05 2.32 -16.60 30.43 -4.75 11.08 0.07 -5.27 -5.30 -11.81 -21.35 -59.52 8.88 47.84 -9.48 2.93 15.43 -43.82 -0 59.70 22.9 -0 29.87 62.22 -0 0.00 0 -0 0.00 -15 -0 31.91 0 -0 43.50 0 -0 21.75 0 -0 0.00 0 -0 41.65 0 -0 41.65 0 -0 41.65 0 -0 0.00 15 -0 39.84 0 -0 39.84 0 -0 39.84 0 -0 0.00 25 -0 24.54 0 -0 24.54 0 -0 24.54 -11.11 0.97 -2.36 -3.56 -28.83 51.56 -97.64 -32.12 -33.33 -41.28 22.15 21.00 -9.35 0 -37.87 -8.64 0 6.35 11.49 0 0.00 0.00 0 0.00 -15.00 0 -36.98 0.00 0 -32.11 0.00 0 -16.06 0.00 0 0.00 0.00 0 -41.06 0.00 0 -41.06 0.00 0 -41.06 0.00 0 0.00 15.00 0 -46.06 0.00 0 -46.06 0.00 0 -46.06 0.00 0 0.00 25.00 0 -37.02 0.00 0 -37.02 0.00 0 -37.02 
-258.60 92.76 166.76 112.55 -5.09 -0.72 -8.38 -6.85 -11.30 0.00 34.75 -0.00 -39.15 -4.95 9.03 -18.43 -8.23 1.29 0.00 28.73 0.00 30.12 -14.15 -8.46 -10.99 1.24 1.17 -2.75 0.28 0.32 -4.53 0.48 0.51 -0.33 3.50 -0.18 0.36 54.24 2.38 -16.61 30.47 -4.70 11.04 0.01 -5.06 -5.26 -11.66 -21.46 -59.85 9.07 48.04 -9.45 2.97 15.41 -43.93 -0 59.62 22.68 -0 29.80 62.17 -0 0.00 0 -0 0.00 -15 -0 31.82 0 -0 43.41 0 -0 21.71 0 -0 0.00 0 -0 41.55 0 -0 41.55 0 -0 41.55 0 -0 0.00 15 -0 39.77 0 -0 39.77 0 -0 39.77 0 -0 0.00 25 -0 24.47 0 -0 24.47 0 -0 24.47 -11.17 1.05 -2.39 -3.57 -28.68 51.57 -95.81 -31.72 -32.59 -41.15 22.5 20.66 -9.32 0 -37.82 -8.60 0 6.40 11.61 0 0.00 0.00 0 0.00 -15.00 0 -36.45 0.00 0 -32.39 0.00 0 -16.20 0.00 0 0.00 0.00 0 -40.63 0.00 0 -40.63 0.00 0 -40.63 0.00 0 0.00 15.00 0 -45.76 0.00 0 -45.76 0.00 0 -45.76 0.00 0 0.00 25.00 0 -36.83 0.00 0 -36.83 0.00 0 -36.83 
-258.58 92.74 166.86 112.56 -5.16 -0.57 -8.19 -6.35 -11.18 0.00 34.95 0.00 -39.43 -4.96 9.37 -18.48 -8.21 1.19 -0.00 28.71 -0.00 30.17 -14.10 -8.52 -10.95 1.12 1.05 -2.74 0.26 0.28 -4.52 0.43 0.46 -0.33 3.50 -0.18 0.39 54.43 2.44 -16.65 30.51 -4.67 11.04 -0.05 -4.85 -5.27 -11.54 -21.58 -60.21 9.25 48.24 -9.41 3.02 15.40 -44.15 -0 59.46 22.23 -0 29.64 61.97 -0 0.00 0 -0 0.00 -15 -0 31.71 0 -0 43.31 0 -0 21.66 0 -0 0.00 0 -0 41.46 0 -0 41.46 0 -0 41.46 0 -0 0.00 15 -0 39.70 0 -0 39.70 0 -0 39.70 0 -0 0.00 25 -0 24.41 0 -0 24.41 0 -0 24.41 -11.20 1.08 -2.55 -3.69 -28.48 51.72 -94.07 -31.32 -31.87 -41.10 23.25 20.37 -9.30 0 -37.74 -8.55 0 6.48 11.76 0 0.00 0.00 0 0.00 -15.00 0 -35.65 0.00 0 -32.87 0.00 0 -16.44 0.00 0 0.00 0.00 0 -40.07 0.00 0 -40.07 0.00 0 -40.07 0.00 0 0.00 15.00 0 -45.32 0.00 0 -45.32 0.00 0 -45.32 0.00 0 0.00 25.00 0 -36.54 0.00 0 -36.54 0.00 0 -36.54 
-258.57 92.71 167.03 112.52 -5.20 -0.44 -7.93 -5.91 -11.05 -0.00 34.99 -0.00 -39.83 -5.09 10.16 -18.56 -8.21 1.15 0.00 28.71 0.00 30.26 -14.01 -8.64 -10.92 1.12 0.97 -2.74 0.26 0.26 -4.51 0.43 0.43 -0.33 3.50 -0.18 0.39 54.43 2.44 -16.65 30.51 -4.67 11.13 -0.32 -4.67 -5.30 -11.27 -21.78 -60.76 9.36 48.46 -9.39 3.04 15.38 -44.36 -0 59.39 21.83 -0 29.57 61.01 -0 0.00 0 -0 0.00 -15 -0 31.59 0 -0 43.18 0 -0 21.59 0 -0 0.00 0 -0 41.48 0 -0 41.48 0 -0 41.48 0 -0 0.00 15 -0 39.63 0 -0 39.63 0 -0 39.63 0 -0 0.00 25 -0 24.63 0 -0 24.63 0 -0 24.63 -11.14 0.86 -2.68 -2.90 -28.29 51.61 -89.12 -28.85 -30.31 -42.46 21.18 18.14 -9.29 0 -37.68 -8.54 0 6.54 11.93 0 0.00 0.00 0 0.00 -15.00 0 -34.91 0.00 0 -31.88 0.00 0 -15.94 0.00 0 0.00 0.00 0 -39.42 0.00 0 -39.42 0.00 0 -39.42 0.00 0 0.00 15.00 0 -44.32 0.00 0 -44.32 0.00 0 -44.32 0.00 0 0.00 25.00 0 -36.13 0.00 0 -36.13 0.00 0 -36.13 
-258.56 92.67 167.20 112.45 -5.28 -0.32 -7.52 -5.50 -10.91 -0.00 34.86 -0.00 -40.51 -5.23 11.14 -18.59 -8.18 1.12 -0.00 28.74 -0.00 30.36 -13.94 -8.77 -10.88 1.16 0.89 -2.73 0.26 0.25 -4.49 0.44 0.40 -0.33 3.50 -0.18 0.39 54.43 2.44 -16.65 30.51 -4.67 11.22 -0.58 -4.49 -5.32 -11.03 -21.99 -61.34 9.47 48.69 -9.36 2.97 15.29 -43.87 -0 60.13 22.79 -0 30.31 62.6 -0 0.00 0 -0 0.00 -15 -0 31.49 0 -0 43.07 0 -0 21.54 0 -0 0.00 0 -0 41.39 0 -0 41.39 0 -0 41.39 0 -0 0.00 15 -0 39.56 0 -0 39.56 0 -0 39.56 0 -0 0.00 25 -0 24.82 0 -0 24.82 0 -0 24.82 -11.10 0.63 -2.79 -2.14 -28.12 51.52 -88.24 -28.1 -30.14 -42.33 21.34 17.78 -9.28 0 -37.61 -8.51 0 6.61 12.05 0 0.00 0.00 0 0.00 -15.00 0 -34.62 0.00 0 -31.45 0.00 0 -15.72 0.00 0 0.00 0.00 0 -38.94 0.00 0 -38.94 0.00 0 -38.94 0.00 0 0.00 15.00 0 -43.69 0.00 0 -43.69 0.00 0 -43.69 0.00 0 0.00 25.00 0 -35.88 0.00 0 -35.88 0.00 0 -35.88 
-258.49 92.64 167.38 112.38 -5.30 -0.18 -7.19 -5.13 -10.84 0.00 34.31 0.00 -41.29 -5.32 12.05 -18.68 -8.15 1.09 -0.00 28.73 -0.00 30.49 -13.88 -8.92 -10.79 1.00 0.80 -2.71 0.23 0.22 -4.45 0.38 0.35 -0.33 3.50 -0.18 0.41 54.62 2.50 -16.69 30.56 -4.65 11.21 -0.57 -4.24 -5.31 -11.40 -21.9 -61.33 9.94 48.94 -9.35 2.9 15.18 -44.16 -0 60.01 22.21 -0 30.19 62.39 -0 0.00 0 -0 0.00 -15 -0 31.41 0 -0 43.02 0 -0 21.51 0 -0 0.00 0 -0 41.32 0 -0 41.32 0 -0 41.32 0 -0 0.00 15 -0 39.51 0 -0 39.51 0 -0 39.51 0 -0 0.00 25 -0 24.32 0 -0 24.32 0 -0 24.32 -11.13 0.61 -2.89 0.13 -28.20 51.35 -89.23 -27.23 -31.09 -42.10 21.29 17.75 -9.25 0 -37.62 -8.46 0 6.59 12.19 0 0.00 0.00 0 0.00 -15.00 0 -34.58 0.00 0 -31.73 0.00 0 -15.86 0.00 0 0.00 0.00 0 -39.00 0.00 0 -39.00 0.00 0 -39.00 0.00 0 0.00 15.00 0 -43.40 0.00 0 -43.40 0.00 0 -43.40 0.00 0 0.00 25.00 0 -35.90 0.00 0 -35.90 0.00 0 -35.90 
-258.43 92.60 167.62 112.29 -5.26 -0.03 -6.98 -5.09 -10.79 0.00 33.78 0.00 -41.71 -5.07 12.49 -18.70 -8.19 1.13 0.00 28.71 0.00 30.55 -13.79 -9.09 -10.68 0.81 0.72 -2.68 0.18 0.20 -4.41 0.31 0.32 -0.34 3.51 -0.18 0.44 54.83 2.57 -16.76 30.59 -4.62 11.23 -0.56 -3.98 -5.28 -11.39 -22.01 -61.6 10.13 49.07 -9.37 2.84 15.07 -44.35 -0 60.03 21.83 -0 30.21 62.51 -0 0.00 0 -0 0.00 -15 -0 31.38 0 -0 43.00 0 -0 21.50 0 -0 0.00 0 -0 41.29 0 -0 41.29 0 -0 41.29 0 -0 0.00 15 -0 39.46 0 -0 39.46 0 -0 39.46 0 -0 0.00 25 -0 24.25 0 -0 24.25 0 -0 24.25 -11.17 0.64 -2.97 0.84 -28.11 51.37 -89.00 -27.22 -30.83 -41.83 21.33 17.78 -9.23 0 -37.66 -8.42 0 6.55 12.16 0 0.00 0.00 0 0.00 -15.00 0 -34.57 0.00 0 -31.91 0.00 0 -15.95 0.00 0 0.00 0.00 0 -39.07 0.00 0 -39.07 0.00 0 -39.07 0.00 0 0.00 15.00 0 -43.15 0.00 0 -43.15 0.00 0 -43.15 0.00 0 0.00 25.00 0 -35.87 0.00 0 -35.87 0.00 0 -35.87 
-258.36 92.57 167.92 112.22 -5.18 0.09 -6.70 -5.15 -10.63 -0.00 33.62 -0.00 -42.01 -5.04 12.28 -18.75 -8.24 1.24 0.00 28.69 -0.00 30.62 -13.67 -9.31 -10.49 0.31 0.69 -2.63 0.08 0.18 -4.33 0.14 0.29 -0.35 3.52 -0.17 0.51 55.38 2.74 -16.99 30.69 -4.59 11.11 -0.12 -3.72 -5.35 -11.20 -22.25 -62.08 10.18 49.27 -9.39 2.8 14.95 -44.59 -0 59.95 21.35 -0 30.13 62.24 -0 0.00 0 -0 0.00 -15 -0 31.35 0 -0 42.99 0 -0 21.50 0 -0 0.00 0 -0 41.23 0 -0 41.23 0 -0 41.23 0 -0 0.00 15 -0 39.41 0 -0 39.41 0 -0 39.41 0 -0 0.00 25 -0 24.19 0 -0 24.19 0 -0 24.19 -11.36 1.07 -3.17 1.55 -28.08 51.36 -88.69 -27.14 -30.56 -41.60 21.44 17.66 -9.22 0 -37.69 -8.39 0 6.52 11.05 0 0.00 0.00 0 0.00 -15.00 0 -33.95 0.00 0 -32.21 0.00 0 -16.10 0.00 0 0.00 0.00 0 -39.08 0.00 0 -39.08 0.00 0 -39.08 0.00 0 0.00 15.00 0 -42.82 0.00 0 -42.82 0.00 0 -42.82 0.00 0 0.00 25.00 0 -35.67 0.00 0 -35.67 0.00 0 -35.67 
-258.31 92.53 168.25 112.08 -5.09 0.24 -6.19 -5.20 -10.46 -0.00 33.53 -0.00 -42.49 -5.00 12.16 -18.76 -8.33 1.37 -0.00 28.66 -0.00 30.68 -13.52 -9.55 -10.37 0.14 0.65 -2.60 0.04 0.16 -4.29 0.08 0.27 -0.35 3.53 -0.17 0.53 55.50 2.77 -17.07 30.71 -4.60 11.18 -0.14 -3.51 -5.42 -11.04 -22.48 -62.57 10.24 49.47 -9.42 2.82 14.87 -44.87 -0 59.84 20.79 -0 30.02 61.96 -0 0.00 0 -0 0.00 -15 -0 31.26 0 -0 42.93 0 -0 21.47 0 -0 0.00 0 -0 41.14 0 -0 41.14 0 -0 41.14 0 -0 0.00 15 -0 39.33 0 -0 39.33 0 -0 39.33 0 -0 0.00 25 -0 24.13 0 -0 24.13 0 -0 24.13 -11.39 1.06 -3.23 2.30 -28.15 51.31 -88.27 -26.81 -30.42 -41.39 21.55 17.49 -9.21 0 -37.68 -8.38 0 6.53 9.97 0 0.00 0.00 0 0.00 -15.00 0 -33.67 0.00 0 -32.11 0.00 0 -16.05 0.00 0 0.00 0.00 0 -39.10 0.00 0 -39.10 0.00 0 -39.10 0.00 0 0.00 15.00 0 -42.35 0.00 0 -42.35 0.00 0 -42.35 0.00 0 0.00 25.00 0 -35.53 0.00 0 -35.53 0.00 0 -35.53 
